<svg xmlns="http://www.w3.org/2000/svg" xmlns:xlink="http://www.w3.org/1999/xlink" width="500" zoomAndPan="magnify" viewBox="0 0 375 374.999991" height="500" preserveAspectRatio="xMidYMid meet" version="1.2"><defs><clipPath id="6205953626"><path d="M 262 68 L 268 68 L 268 73 L 262 73 Z M 262 68 "/></clipPath><clipPath id="6307ec1c12"><path d="M 263.949219 75.0625 L 261.503906 70.847656 L 265.183594 68.710938 L 267.632812 72.921875 Z M 263.949219 75.0625 "/></clipPath><clipPath id="fd71e540a2"><path d="M 262.730469 72.957031 L 265.1875 68.714844 L 267.632812 72.921875 Z M 262.730469 72.957031 "/></clipPath><clipPath id="a3d09e0239"><path d="M 281.949219 194 L 300 194 L 300 209.90625 L 281.949219 209.90625 Z M 281.949219 194 "/></clipPath><clipPath id="cc79839f92"><path d="M 293 164.90625 L 334 164.90625 L 334 209.90625 L 293 209.90625 Z M 293 164.90625 "/></clipPath><clipPath id="4621b439ab"><path d="M 301.179688 186.992188 L 314.949219 186.992188 L 314.949219 199.019531 L 301.179688 199.019531 Z M 301.179688 186.992188 "/></clipPath><clipPath id="6905b4b80a"><path d="M 308.054688 186.992188 L 314.929688 199.019531 L 301.179688 199.019531 Z M 308.054688 186.992188 "/></clipPath><clipPath id="c10c6dce5a"><path d="M 290 199 L 298 199 L 298 206 L 290 206 Z M 290 199 "/></clipPath><clipPath id="d3384ce018"><path d="M 292.261719 207.859375 L 289.050781 202.402344 L 293.816406 199.59375 L 297.027344 205.050781 Z M 292.261719 207.859375 "/></clipPath><clipPath id="93475f1f3a"><path d="M 290.65625 205.132812 L 293.820312 199.601562 L 297.027344 205.050781 Z M 290.65625 205.132812 "/></clipPath></defs><g id="c7cf877d84"><rect x="0" width="375" y="0" height="374.999991" style="fill:#ffffff;fill-opacity:1;stroke:none;"/><rect x="0" width="375" y="0" height="374.999991" style="fill:#000000;fill-opacity:1;stroke:none;"/><g style="fill:#f8fffb;fill-opacity:1;"><g transform="translate(59.669748, 198.374987)"><path style="stroke:none" d="M 9.984375 -10.265625 L 18.5 0 L 14.96875 0 L 7.640625 -8.984375 L 5.03125 -8.984375 L 5.03125 0 L 2.296875 0 L 2.296875 -20.0625 L 5.03125 -20.0625 L 5.03125 -11.390625 L 7.640625 -11.390625 L 14.84375 -20.0625 L 18.171875 -20.0625 Z M 9.984375 -10.265625 "/></g></g><g style="fill:#f8fffb;fill-opacity:1;"><g transform="translate(89.105198, 198.374987)"><path style="stroke:none" d="M 15.421875 -8 L 15.421875 -20.0625 L 18.140625 -20.0625 L 18.140625 -8 C 18.140625 -5.1875 17.484375 -3.109375 16.171875 -1.765625 C 14.859375 -0.421875 12.828125 0.25 10.078125 0.25 C 7.304688 0.25 5.285156 -0.40625 4.015625 -1.71875 C 2.742188 -3.03125 2.109375 -5.125 2.109375 -8 L 2.109375 -20.0625 L 4.828125 -20.0625 L 4.828125 -8 C 4.828125 -5.882812 5.21875 -4.40625 6 -3.5625 C 6.78125 -2.71875 8.140625 -2.296875 10.078125 -2.296875 C 12.046875 -2.296875 13.425781 -2.71875 14.21875 -3.5625 C 15.019531 -4.40625 15.421875 -5.882812 15.421875 -8 Z M 15.421875 -8 "/></g></g><g style="fill:#f8fffb;fill-opacity:1;"><g transform="translate(120.268214, 198.374987)"><path style="stroke:none" d="M 5.03125 -7.203125 L 5.03125 0 L 2.296875 0 L 2.296875 -20.0625 L 9.125 -20.0625 C 11.957031 -20.0625 13.988281 -19.578125 15.21875 -18.609375 C 16.445312 -17.640625 17.0625 -16.035156 17.0625 -13.796875 C 17.0625 -12.046875 16.671875 -10.648438 15.890625 -9.609375 C 15.109375 -8.578125 13.929688 -7.878906 12.359375 -7.515625 L 17.59375 0 L 14.34375 0 L 9.46875 -7.203125 Z M 14.296875 -13.796875 C 14.296875 -15.160156 13.898438 -16.132812 13.109375 -16.71875 C 12.328125 -17.300781 11 -17.59375 9.125 -17.59375 L 5.03125 -17.59375 L 5.03125 -9.59375 L 9.125 -9.59375 C 10.957031 -9.59375 12.273438 -9.921875 13.078125 -10.578125 C 13.890625 -11.242188 14.296875 -12.316406 14.296875 -13.796875 Z M 14.296875 -13.796875 "/></g></g><g style="fill:#f8fffb;fill-opacity:1;"><g transform="translate(149.703663, 198.374987)"><path style="stroke:none" d="M 16.703125 -5.765625 C 16.703125 -3.710938 16.144531 -2.238281 15.03125 -1.34375 C 13.925781 -0.445312 12.148438 0 9.703125 0 L 2.296875 0 L 2.296875 -20.0625 L 9.65625 -20.0625 C 11.875 -20.0625 13.453125 -19.6875 14.390625 -18.9375 C 15.335938 -18.195312 15.8125 -16.921875 15.8125 -15.109375 C 15.8125 -13.804688 15.582031 -12.800781 15.125 -12.09375 C 14.664062 -11.394531 13.890625 -10.914062 12.796875 -10.65625 C 14.097656 -10.488281 15.070312 -10 15.71875 -9.1875 C 16.375 -8.375 16.703125 -7.234375 16.703125 -5.765625 Z M 13.28125 -14.71875 C 13.28125 -15.832031 13.015625 -16.609375 12.484375 -17.046875 C 11.953125 -17.484375 11.023438 -17.703125 9.703125 -17.703125 L 5.03125 -17.703125 L 5.03125 -11.421875 L 9.703125 -11.421875 C 10.972656 -11.421875 11.882812 -11.675781 12.4375 -12.1875 C 13 -12.695312 13.28125 -13.539062 13.28125 -14.71875 Z M 14.078125 -5.921875 C 14.078125 -7.117188 13.742188 -7.953125 13.078125 -8.421875 C 12.421875 -8.890625 11.296875 -9.125 9.703125 -9.125 L 5.03125 -9.125 L 5.03125 -2.4375 L 9.703125 -2.4375 C 11.296875 -2.4375 12.421875 -2.691406 13.078125 -3.203125 C 13.742188 -3.710938 14.078125 -4.617188 14.078125 -5.921875 Z M 14.078125 -5.921875 "/></g></g><g style="fill:#f8fffb;fill-opacity:1;"><g transform="translate(178.53126, 198.374987)"><path style="stroke:none" d="M 10.046875 -8.421875 L 5.1875 -9.5625 C 3.84375 -9.882812 2.867188 -10.4375 2.265625 -11.21875 C 1.671875 -12 1.375 -13.082031 1.375 -14.46875 C 1.375 -16.488281 1.953125 -17.976562 3.109375 -18.9375 C 4.273438 -19.90625 6.085938 -20.390625 8.546875 -20.390625 C 9.566406 -20.390625 10.488281 -20.335938 11.3125 -20.234375 C 12.132812 -20.140625 12.894531 -20 13.59375 -19.8125 L 13.59375 -17.34375 C 12.695312 -17.550781 11.84375 -17.695312 11.03125 -17.78125 C 10.226562 -17.875 9.390625 -17.921875 8.515625 -17.921875 C 6.867188 -17.921875 5.710938 -17.679688 5.046875 -17.203125 C 4.390625 -16.722656 4.0625 -15.875 4.0625 -14.65625 C 4.0625 -13.882812 4.210938 -13.300781 4.515625 -12.90625 C 4.828125 -12.507812 5.335938 -12.226562 6.046875 -12.0625 L 10.875 -10.90625 C 12.582031 -10.5 13.71875 -9.925781 14.28125 -9.1875 C 14.851562 -8.457031 15.140625 -7.328125 15.140625 -5.796875 C 15.140625 -3.597656 14.566406 -2.039062 13.421875 -1.125 C 12.285156 -0.207031 10.476562 0.25 8 0.25 C 6.695312 0.25 5.441406 0.164062 4.234375 0 C 3.035156 -0.164062 2.082031 -0.390625 1.375 -0.671875 L 1.375 -3.234375 C 2.375 -2.929688 3.4375 -2.695312 4.5625 -2.53125 C 5.695312 -2.375 6.84375 -2.296875 8 -2.296875 C 9.601562 -2.296875 10.722656 -2.53125 11.359375 -3 C 11.992188 -3.476562 12.3125 -4.390625 12.3125 -5.734375 C 12.3125 -6.554688 12.15625 -7.15625 11.84375 -7.53125 C 11.539062 -7.90625 10.941406 -8.203125 10.046875 -8.421875 Z M 10.046875 -8.421875 "/></g></g><g style="fill:#f8fffb;fill-opacity:1;"><g transform="translate(205.567296, 198.374987)"><path style="stroke:none" d="M 5.03125 -20.0625 L 5.03125 0 L 2.296875 0 L 2.296875 -20.0625 Z M 5.03125 -20.0625 "/></g></g><g style="fill:#f8fffb;fill-opacity:1;"><g transform="translate(223.805492, 198.374987)"><path style="stroke:none" d="M 8.125 0 L 2.296875 0 L 2.296875 -20.0625 L 8.125 -20.0625 C 10.175781 -20.0625 11.800781 -19.890625 13 -19.546875 C 14.207031 -19.210938 15.175781 -18.671875 15.90625 -17.921875 C 16.625 -17.171875 17.148438 -16.160156 17.484375 -14.890625 C 17.816406 -13.617188 17.984375 -12.003906 17.984375 -10.046875 C 17.984375 -6.566406 17.203125 -4.019531 15.640625 -2.40625 C 14.085938 -0.800781 11.582031 0 8.125 0 Z M 13.859375 -15.96875 C 13.367188 -16.539062 12.6875 -16.953125 11.8125 -17.203125 C 10.9375 -17.460938 9.707031 -17.59375 8.125 -17.59375 L 5.03125 -17.59375 L 5.03125 -2.5625 L 8.125 -2.5625 C 10.769531 -2.5625 12.609375 -3.125 13.640625 -4.25 C 14.679688 -5.382812 15.203125 -7.316406 15.203125 -10.046875 C 15.203125 -11.554688 15.09375 -12.78125 14.875 -13.71875 C 14.664062 -14.664062 14.328125 -15.414062 13.859375 -15.96875 Z M 13.859375 -15.96875 "/></g></g><g style="fill:#f8fffb;fill-opacity:1;"><g transform="translate(254.104719, 198.374987)"><path style="stroke:none" d="M 15.609375 -2.5625 L 15.609375 0 L 2.296875 0 L 2.296875 -20.0625 L 15.328125 -20.0625 L 15.328125 -17.59375 L 5.03125 -17.59375 L 5.03125 -11.453125 L 14.140625 -11.453125 L 14.140625 -9.0625 L 5.03125 -9.0625 L 5.03125 -2.5625 Z M 15.609375 -2.5625 "/></g></g><g clip-rule="nonzero" clip-path="url(#6205953626)"><g clip-rule="nonzero" clip-path="url(#6307ec1c12)"><g clip-rule="nonzero" clip-path="url(#fd71e540a2)"><path style=" stroke:none;fill-rule:nonzero;fill:#000000;fill-opacity:1;" d="M 263.949219 75.0625 L 261.503906 70.847656 L 265.183594 68.710938 L 267.632812 72.921875 Z M 263.949219 75.0625 "/></g></g></g><g clip-rule="nonzero" clip-path="url(#a3d09e0239)"><path style=" stroke:none;fill-rule:nonzero;fill:#f8fffb;fill-opacity:1;" d="M 290.59375 194.941406 L 299.234375 209.90625 L 281.953125 209.90625 Z M 290.59375 194.941406 "/></g><path style=" stroke:none;fill-rule:nonzero;fill:#f8fffb;fill-opacity:1;" d="M 307.9375 186.988281 L 314.832031 198.9375 L 301.039062 198.9375 Z M 307.9375 186.988281 "/><g clip-rule="nonzero" clip-path="url(#cc79839f92)"><path style=" stroke:none;fill-rule:nonzero;fill:#f8fffb;fill-opacity:1;" d="M 296.40625 196.179688 L 307.9375 176.203125 L 324.132812 204.257812 L 301.066406 204.257812 L 304.328125 209.90625 L 333.917969 209.90625 L 307.9375 164.902344 L 293.140625 190.527344 Z M 296.40625 196.179688 "/></g><g clip-rule="nonzero" clip-path="url(#4621b439ab)"><g clip-rule="nonzero" clip-path="url(#6905b4b80a)"><path style=" stroke:none;fill-rule:nonzero;fill:#4990d8;fill-opacity:1;" d="M 301.179688 186.992188 L 314.949219 186.992188 L 314.949219 199.019531 L 301.179688 199.019531 Z M 301.179688 186.992188 "/></g></g><g clip-rule="nonzero" clip-path="url(#c10c6dce5a)"><g clip-rule="nonzero" clip-path="url(#d3384ce018)"><g clip-rule="nonzero" clip-path="url(#93475f1f3a)"><path style=" stroke:none;fill-rule:nonzero;fill:#000000;fill-opacity:1;" d="M 292.261719 207.859375 L 289.050781 202.402344 L 293.816406 199.59375 L 297.027344 205.050781 Z M 292.261719 207.859375 "/></g></g></g></g></svg>